<?xml version="1.0" encoding="UTF-8"?>
<svg width="256" height="256" viewBox="0 0 256 256" xmlns="http://www.w3.org/2000/svg" role="img" aria-label="PriceScanner logo">
  <defs>
    <style>
      .blue{fill:#146EB4}
      .dark{fill:#1f2937}
    </style>
  </defs>
  <!-- Cart -->
  <g class="blue">
    <path d="M36 72c-3.3 0-6-2.7-6-6s2.7-6 6-6l28 4c2.6.37 4.8 2.2 5.5 4.7l2.6 9.3H186c6.6 0 11.4 6.2 9.7 12.6l-10.2 38.7c-1.6 5.9-6.9 10-13 10H98.6c-6.1 0-11.4-4.1-13-10L66.2 84.9l-30.2-4.2z"/>
    <rect x="82" y="110" width="64" height="36" rx="2" ry="2" fill="#0f5c9a"/>
    <rect x="90" y="116" width="6" height="24" rx="1"/>
    <rect x="102" y="116" width="6" height="24" rx="1"/>
    <rect x="114" y="116" width="6" height="24" rx="1"/>
    <rect x="126" y="116" width="6" height="24" rx="1"/>
    <rect x="138" y="116" width="6" height="24" rx="1"/>
    <circle cx="96" cy="188" r="14"/>
    <circle cx="164" cy="188" r="14"/>
  </g>
  <!-- Magnifier -->
  <g class="blue">
    <circle cx="176" cy="108" r="40" fill="none" stroke="#146EB4" stroke-width="12"/>
    <rect x="205" y="134" width="52" height="14" rx="7" ry="7" transform="rotate(45 231 141)"/>
  </g>
  <!-- Wordmark -->
  <text x="128" y="236" class="dark" font-family="Inter,Segoe UI,Arial" font-size="28" font-weight="800" text-anchor="middle">PRICE SCANNER</text>
</svg>
